<svg width="69" height="30" viewBox="0 0 69 30" fill="none" xmlns="http://www.w3.org/2000/svg">
<rect x="0.319336" width="68.6145" height="30" rx="5" fill="#F97878"/>
<path d="M17.7107 21.16C16.8467 21.16 16.0093 21.0373 15.1987 20.792C14.3987 20.5467 13.764 20.2213 13.2947 19.816L14.0147 18.2C14.4733 18.5627 15.0333 18.8613 15.6947 19.096C16.3667 19.32 17.0387 19.432 17.7107 19.432C18.5427 19.432 19.1613 19.2987 19.5667 19.032C19.9827 18.7653 20.1907 18.4133 20.1907 17.976C20.1907 17.656 20.0733 17.3947 19.8387 17.192C19.6147 16.9787 19.3267 16.8133 18.9747 16.696C18.6227 16.5787 18.1427 16.4453 17.5347 16.296C16.6813 16.0933 15.988 15.8907 15.4547 15.688C14.932 15.4853 14.4787 15.1707 14.0947 14.744C13.7213 14.3067 13.5347 13.72 13.5347 12.984C13.5347 12.3653 13.7 11.8053 14.0307 11.304C14.372 10.792 14.8787 10.3867 15.5507 10.088C16.2333 9.78933 17.0653 9.64 18.0467 9.64C18.7293 9.64 19.4013 9.72533 20.0627 9.896C20.724 10.0667 21.2947 10.312 21.7747 10.632L21.1187 12.248C20.628 11.96 20.116 11.7413 19.5827 11.592C19.0493 11.4427 18.532 11.368 18.0307 11.368C17.2093 11.368 16.596 11.5067 16.1907 11.784C15.796 12.0613 15.5987 12.4293 15.5987 12.888C15.5987 13.208 15.7107 13.4693 15.9347 13.672C16.1693 13.8747 16.4627 14.0347 16.8147 14.152C17.1667 14.2693 17.6467 14.4027 18.2547 14.552C19.0867 14.744 19.7693 14.9467 20.3027 15.16C20.836 15.3627 21.2893 15.6773 21.6627 16.104C22.0467 16.5307 22.2387 17.1067 22.2387 17.832C22.2387 18.4507 22.068 19.0107 21.7267 19.512C21.396 20.0133 20.8893 20.4133 20.2067 20.712C19.524 21.0107 18.692 21.16 17.7107 21.16ZM32.0452 18.408H26.4452L25.3412 21H23.1972L28.2372 9.8H30.2852L35.3412 21H33.1652L32.0452 18.408ZM31.3572 16.776L29.2452 11.88L27.1492 16.776H31.3572ZM37.2455 9.8H39.3255V19.24H45.1815V21H37.2455V9.8ZM55.7037 19.256V21H47.3037V9.8H55.4797V11.544H49.3837V14.456H54.7917V16.168H49.3837V19.256H55.7037Z" fill="#191918"/>
</svg>
